<?xml version="1.0" standalone="no"?>
<!DOCTYPE svg PUBLIC "-//W3C//DTD SVG 20010904//EN"
 "http://www.w3.org/TR/2001/REC-SVG-20010904/DTD/svg10.dtd">
<svg version="1.0" xmlns="http://www.w3.org/2000/svg"
 width="260.000000pt" height="260.000000pt" viewBox="0 0 260.000000 260.000000"
 preserveAspectRatio="xMidYMid meet">
<metadata>
Created by potrace 1.14, written by Peter Selinger 2001-2017
</metadata>
<g transform="translate(0.000000,260.000000) scale(0.100000,-0.100000)"
fill="#000000" stroke="none">
<path d="M185 2577 c-86 -34 -123 -69 -160 -150 l-25 -55 2 -1083 3 -1084 23
-43 c27 -51 82 -104 131 -129 34 -17 104 -18 1126 -21 1235 -3 1148 -8 1235
78 86 87 81 1 78 1231 l-3 1084 -25 40 c-38 62 -66 90 -118 116 l-47 24 -1095
2 c-823 1 -1102 -1 -1125 -10z"/>
</g>
</svg>
